<?xml version="1.0" encoding="UTF-8"?>
<svg width="141px" height="31px" viewBox="0 0 141 31" version="1.1" xmlns="http://www.w3.org/2000/svg" xmlns:xlink="http://www.w3.org/1999/xlink">
    <!-- Generator: sketchtool 52.1 (67048) - http://www.bohemiancoding.com/sketch -->
    <title>C622FF0B-7CF9-40F4-9012-10DF0F397421</title>
    <desc>Created with sketchtool.</desc>
    <g id="Page-1" stroke="none" stroke-width="1" fill="none" fill-rule="evenodd">
        <g id="1-mobile" transform="translate(-20.000000, -15.000000)" fill="#202840">
            <path d="M32.75,33.03125 C32.75,32.1458289 32.4375031,31.4661482 31.8125,30.9921875 C31.1874969,30.5182268 30.0625081,30.0182318 28.4375,29.4921875 C26.8124919,28.9661432 25.5260464,28.4479192 24.578125,27.9375 C21.9947787,26.5416597 20.703125,24.6614702 20.703125,22.296875 C20.703125,21.0677022 21.0494757,19.971359 21.7421875,19.0078125 C22.4348993,18.044266 23.429681,17.2916694 24.7265625,16.75 C26.023444,16.2083306 27.4791586,15.9375 29.09375,15.9375 C30.7187581,15.9375 32.1666603,16.2317679 33.4375,16.8203125 C34.7083397,17.4088571 35.695309,18.239578 36.3984375,19.3125 C37.101566,20.385422 37.453125,21.6041598 37.453125,22.96875 L32.765625,22.96875 C32.765625,21.9270781 32.4375033,21.1171904 31.78125,20.5390625 C31.1249967,19.9609346 30.2031309,19.671875 29.015625,19.671875 C27.8697859,19.671875 26.9791698,19.9140601 26.34375,20.3984375 C25.7083302,20.8828149 25.390625,21.5208294 25.390625,22.3125 C25.390625,23.052087 25.7630171,23.6718725 26.5078125,24.171875 C27.2526079,24.6718775 28.3489511,25.1406228 29.796875,25.578125 C32.463555,26.3802123 34.4062439,27.3749941 35.625,28.5625 C36.8437561,29.7500059 37.453125,31.2291578 37.453125,33 C37.453125,34.9687598 36.7083408,36.5130152 35.21875,37.6328125 C33.7291592,38.7526098 31.7239709,39.3125 29.203125,39.3125 C27.4531162,39.3125 25.8593822,38.9921907 24.421875,38.3515625 C22.9843678,37.7109343 21.8880246,36.8333389 21.1328125,35.71875 C20.3776004,34.6041611 20,33.3125073 20,31.84375 L24.703125,31.84375 C24.703125,34.3541792 26.20311,35.609375 29.203125,35.609375 C30.3177139,35.609375 31.1874969,35.3828148 31.8125,34.9296875 C32.4375031,34.4765602 32.75,33.8437541 32.75,33.03125 Z M44.734375,23.9375 C45.9322977,22.4999928 47.4374909,21.78125 49.25,21.78125 C52.916685,21.78125 54.7760414,23.911437 54.828125,28.171875 L54.828125,39 L50.3125,39 L50.3125,28.296875 C50.3125,27.3281202 50.1041687,26.6119815 49.6875,26.1484375 C49.2708313,25.6848935 48.5781298,25.453125 47.609375,25.453125 C46.2864517,25.453125 45.328128,25.9635366 44.734375,26.984375 L44.734375,39 L40.21875,39 L40.21875,15 L44.734375,15 L44.734375,23.9375 Z M57.53125,30.390625 C57.53125,28.7135333 57.8541634,27.2187566 58.5,25.90625 C59.1458366,24.5937434 60.0755148,23.5781286 61.2890625,22.859375 C62.5026102,22.1406214 63.9114503,21.78125 65.515625,21.78125 C67.7968864,21.78125 69.658847,22.4791597 71.1015625,23.875 C72.544278,25.2708403 73.3489575,27.1666547 73.515625,29.5625 L73.546875,30.71875 C73.546875,33.312513 72.8229239,35.3932213 71.375,36.9609375 C69.9270761,38.5286537 67.9843872,39.3125 65.546875,39.3125 C63.1093628,39.3125 61.1640698,38.5312578 59.7109375,36.96875 C58.2578052,35.4062422 57.53125,33.2812634 57.53125,30.59375 L57.53125,30.390625 Z M62.046875,30.71875 C62.046875,32.3229247 62.3489553,33.5494749 62.953125,34.3984375 C63.5572947,35.2474001 64.4218694,35.671875 65.546875,35.671875 C66.6406305,35.671875 67.4947886,35.2526084 68.109375,34.4140625 C68.7239614,33.5755166 69.03125,32.2343842 69.03125,30.390625 C69.03125,28.8177005 68.7239614,27.5989627 68.109375,26.734375 C67.4947886,25.8697873 66.6302139,25.4375 65.515625,25.4375 C64.4114528,25.4375 63.5572947,25.8671832 62.953125,26.7265625 C62.3489553,27.5859418 62.046875,28.9166577 62.046875,30.71875 Z M84.109375,39.3125 C81.6301959,39.3125 79.611987,38.5520909 78.0546875,37.03125 C76.497388,35.5104091 75.71875,33.4843877 75.71875,30.953125 L75.71875,30.515625 C75.71875,28.8176998 76.0468717,27.2994859 76.703125,25.9609375 C77.3593783,24.6223891 78.2890565,23.5911495 79.4921875,22.8671875 C80.6953185,22.1432255 82.0677006,21.78125 83.609375,21.78125 C85.9218866,21.78125 87.7421809,22.5104094 89.0703125,23.96875 C90.3984441,25.4270906 91.0625,27.4947783 91.0625,30.171875 L91.0625,32.015625 L80.296875,32.015625 C80.4427091,33.1197972 80.8828088,34.005205 81.6171875,34.671875 C82.3515662,35.338545 83.2812444,35.671875 84.40625,35.671875 C86.145842,35.671875 87.5052034,35.041673 88.484375,33.78125 L90.703125,36.265625 C90.0260383,37.2239631 89.1093808,37.9713515 87.953125,38.5078125 C86.7968692,39.0442735 85.515632,39.3125 84.109375,39.3125 Z M83.59375,25.4375 C82.6979122,25.4375 81.971357,25.7395803 81.4140625,26.34375 C80.856768,26.9479197 80.5000008,27.8124944 80.34375,28.9375 L86.625,28.9375 L86.625,28.578125 C86.6041666,27.57812 86.3333359,26.8046902 85.8125,26.2578125 C85.2916641,25.7109348 84.5520881,25.4375 83.59375,25.4375 Z M103.921875,34.515625 C103.921875,33.7343711 103.627607,33.1276063 103.039062,32.6953125 C102.450518,32.2630187 101.424486,31.8906266 99.9609375,31.578125 C98.4973885,31.2656234 97.3359418,30.8906272 96.4765625,30.453125 C95.6171832,30.0156228 94.9817729,29.4947947 94.5703125,28.890625 C94.1588521,28.2864553 93.953125,27.5677125 93.953125,26.734375 C93.953125,25.3489514 94.5390566,24.1770881 95.7109375,23.21875 C96.8828184,22.2604119 98.3801992,21.78125 100.203125,21.78125 C102.119801,21.78125 103.674473,22.2760367 104.867188,23.265625 C106.059902,24.2552133 106.65625,25.5208256 106.65625,27.0625 L103.75,27.0625 C103.75,26.2708294 103.414066,25.5885445 102.742188,25.015625 C102.070309,24.4427055 101.223963,24.15625 100.203125,24.15625 C99.1510364,24.15625 98.328128,24.3854144 97.734375,24.84375 C97.140622,25.3020856 96.84375,25.901038 96.84375,26.640625 C96.84375,27.3385452 97.1197889,27.8645816 97.671875,28.21875 C98.2239611,28.5729184 99.221347,28.9114567 100.664062,29.234375 C102.106778,29.5572933 103.276037,29.9427061 104.171875,30.390625 C105.067713,30.8385439 105.731769,31.377601 106.164062,32.0078125 C106.596356,32.638024 106.8125,33.4062455 106.8125,34.3125 C106.8125,35.8229242 106.208339,37.0338496 105,37.9453125 C103.791661,38.8567754 102.223968,39.3125 100.296875,39.3125 C98.9427016,39.3125 97.7447969,39.0729191 96.703125,38.59375 C95.6614531,38.1145809 94.8463571,37.4453168 94.2578125,36.5859375 C93.6692679,35.7265582 93.375,34.79688 93.375,33.796875 L96.265625,33.796875 C96.3177086,34.7656298 96.7057255,35.5338513 97.4296875,36.1015625 C98.1536495,36.6692737 99.1093691,36.953125 100.296875,36.953125 C101.39063,36.953125 102.268226,36.731773 102.929688,36.2890625 C103.591149,35.846352 103.921875,35.255212 103.921875,34.515625 Z M113.46875,24.140625 C114.750006,22.5677005 116.416656,21.78125 118.46875,21.78125 C122.041685,21.78125 123.84375,23.7968548 123.875,27.828125 L123.875,39 L120.984375,39 L120.984375,27.8125 C120.973958,26.5937439 120.695315,25.6927112 120.148438,25.109375 C119.60156,24.5260388 118.750006,24.234375 117.59375,24.234375 C116.656245,24.234375 115.833337,24.4843725 115.125,24.984375 C114.416663,25.4843775 113.864585,26.1406209 113.46875,26.953125 L113.46875,39 L110.578125,39 L110.578125,15 L113.46875,15 L113.46875,24.140625 Z M127.4375,30.390625 C127.4375,28.7343667 127.763018,27.2447983 128.414062,25.921875 C129.065107,24.5989517 129.971348,23.5781286 131.132812,22.859375 C132.294277,22.1406214 133.619784,21.78125 135.109375,21.78125 C137.41147,21.78125 139.27343,22.578117 140.695312,24.171875 C142.117195,25.765633 142.828125,27.8854034 142.828125,30.53125 L142.828125,30.734375 C142.828125,32.3802166 142.513024,33.8567643 141.882812,35.1640625 C141.252601,36.4713607 140.351568,37.4895797 139.179688,38.21875 C138.007807,38.9479203 136.661466,39.3125 135.140625,39.3125 C132.848947,39.3125 130.992195,38.515633 129.570312,36.921875 C128.14843,35.328117 127.4375,33.2187631 127.4375,30.59375 L127.4375,30.390625 Z M130.34375,30.734375 C130.34375,32.6093844 130.778641,34.1145777 131.648438,35.25 C132.518234,36.3854223 133.682284,36.953125 135.140625,36.953125 C136.609382,36.953125 137.776037,36.3776099 138.640625,35.2265625 C139.505213,34.0755151 139.9375,32.463552 139.9375,30.390625 C139.9375,28.5364491 139.4974,27.0338599 138.617188,25.8828125 C137.736975,24.7317651 136.567716,24.15625 135.109375,24.15625 C133.682285,24.15625 132.531254,24.7239527 131.65625,25.859375 C130.781246,26.9947973 130.34375,28.6197811 130.34375,30.734375 Z M160.734375,30.734375 C160.734375,33.3073045 160.145839,35.3802005 158.96875,36.953125 C157.791661,38.5260495 156.197927,39.3125 154.1875,39.3125 C152.135406,39.3125 150.520839,38.6614648 149.34375,37.359375 L149.34375,45.5 L146.453125,45.5 L146.453125,22.09375 L149.09375,22.09375 L149.234375,23.96875 C150.411464,22.5104094 152.046865,21.78125 154.140625,21.78125 C156.171885,21.78125 157.77864,22.5468673 158.960938,24.078125 C160.143235,25.6093827 160.734375,27.7395697 160.734375,30.46875 L160.734375,30.734375 Z M157.84375,30.40625 C157.84375,28.4999905 157.437504,26.9947972 156.625,25.890625 C155.812496,24.7864528 154.697924,24.234375 153.28125,24.234375 C151.531241,24.234375 150.218754,25.0104089 149.34375,26.5625 L149.34375,34.640625 C150.208338,36.1822994 151.531241,36.953125 153.3125,36.953125 C154.697924,36.953125 155.799475,36.4036513 156.617188,35.3046875 C157.4349,34.2057237 157.84375,32.5729275 157.84375,30.40625 Z" id="logo"></path>
        </g>
    </g>
</svg>